<?xml version="1.0" standalone="no"?>
<!DOCTYPE svg PUBLIC "-//W3C//DTD SVG 20010904//EN"
 "http://www.w3.org/TR/2001/REC-SVG-20010904/DTD/svg10.dtd">
<svg version="1.0" xmlns="http://www.w3.org/2000/svg"
 width="300.000000pt" height="80.000000pt" viewBox="0 0 300.000000 80.000000"
 preserveAspectRatio="xMidYMid meet">
<metadata>
Created by potrace 1.10, written by Peter Selinger 2001-2011
</metadata>
<g transform="translate(0.000000,80.000000) scale(0.100000,-0.100000)"
fill="#000000" stroke="none">
<path d="M2229 581 c-19 -15 -24 -29 -24 -70 0 -46 -2 -51 -22 -51 -14 0 -23
-6 -23 -15 0 -9 9 -15 23 -15 21 0 22 -2 19 -90 -3 -77 -1 -90 12 -90 13 0 16
15 16 90 0 89 0 90 25 90 16 0 25 6 25 15 0 9 -9 15 -25 15 -23 0 -25 4 -25
43 0 48 13 67 47 67 26 0 31 15 7 24 -24 9 -30 8 -55 -13z"/>
<path d="M1105 420 c0 -129 3 -170 13 -170 9 0 12 41 12 170 0 129 -3 170 -12
170 -10 0 -13 -41 -13 -170z"/>
<path d="M2087 553 c-14 -13 -6 -33 13 -33 13 0 20 7 20 20 0 19 -20 27 -33
13z"/>
<path d="M620 497 c-52 -11 -97 -22 -100 -24 -8 -7 24 -23 46 -23 20 0 21 -5
20 -110 -1 -126 9 -149 57 -131 30 12 34 23 13 41 -20 16 -44 95 -45 145 l-1
41 71 18 c50 13 74 15 81 8 8 -8 2 -13 -18 -17 -77 -17 -80 -20 -32 -31 39 -9
63 -6 167 19 67 16 121 32 121 37 0 10 -205 50 -250 49 -19 -1 -78 -10 -130
-22z m219 -18 c18 -6 29 -15 24 -19 -14 -14 -83 -23 -83 -12 0 6 -3 17 -6 26
-7 19 18 21 65 5z"/>
<path d="M1229 431 c-24 -24 -29 -38 -29 -76 0 -38 5 -52 29 -76 24 -23 38
-29 74 -29 48 0 96 28 83 49 -5 8 -15 6 -33 -9 -29 -23 -51 -25 -86 -9 -21 9
-47 46 -47 64 0 3 41 5 90 5 55 0 90 4 90 10 0 24 -30 79 -48 89 -39 21 -91
13 -123 -18z m115 -12 c47 -37 35 -49 -49 -49 -75 0 -76 0 -64 23 27 50 70 60
113 26z"/>
<path d="M1474 446 c-26 -19 -10 -32 21 -18 35 16 61 15 79 -4 28 -27 19 -41
-32 -48 -26 -3 -58 -13 -70 -22 -40 -27 -21 -102 26 -105 34 -2 57 3 75 18 15
15 17 15 17 0 0 -10 7 -17 16 -17 25 0 16 160 -10 189 -23 25 -91 29 -122 7z
m116 -111 c0 -32 -33 -65 -64 -65 -24 0 -56 23 -56 39 0 17 37 40 70 44 19 2
38 5 43 5 4 1 7 -9 7 -23z"/>
<path d="M1685 355 c0 -87 3 -105 15 -105 12 0 15 15 15 75 0 80 12 105 53
108 12 0 24 7 26 14 8 19 -44 16 -66 -4 -17 -15 -18 -15 -18 0 0 10 -6 17 -12
17 -10 0 -13 -28 -13 -105z"/>
<path d="M1830 355 c0 -83 3 -105 14 -105 10 0 15 20 18 76 3 65 7 79 27 95
26 22 61 25 79 7 7 -7 12 -44 12 -95 0 -67 3 -83 15 -83 22 0 21 156 -1 188
-18 27 -78 30 -112 6 -20 -14 -22 -14 -22 0 0 9 -7 16 -15 16 -12 0 -15 -18
-15 -105z"/>
<path d="M2090 355 c0 -77 3 -105 13 -105 9 0 12 28 12 105 0 77 -3 105 -12
105 -10 0 -13 -28 -13 -105z"/>
<path d="M2299 438 c5 -13 23 -56 40 -97 17 -41 31 -82 31 -93 0 -32 -29 -78
-50 -78 -25 0 -36 -18 -15 -26 41 -16 61 11 123 165 50 125 57 151 43 151 -12
0 -25 -23 -46 -85 -16 -47 -32 -85 -35 -85 -3 0 -18 37 -35 83 -20 55 -36 83
-48 85 -14 3 -16 0 -8 -20z"/>
<path d="M650 363 c0 -54 44 -93 107 -93 45 0 87 17 105 44 4 6 8 28 8 48 l0
37 -55 -16 c-50 -14 -60 -14 -110 0 l-55 16 0 -36z m188 -18 c14 -14 -41 -45
-78 -45 -39 0 -88 29 -78 46 7 10 146 9 156 -1z"/>
</g>
</svg>
