<svg xmlns="http://www.w3.org/2000/svg" version="1.1" xmlns:xlink="http://www.w3.org/1999/xlink" xmlns:svgjs="http://svgjs.dev/svgjs" width="2000" height="1500" viewBox="0 0 2000 1500"><rect width="2000" height="1500" fill="#ffffff"></rect><g transform="matrix(0.75,0,0,0.75,249.090909090909,513.1072554662005)"><svg viewBox="0 0 396 125" data-background-color="#ffffff" preserveAspectRatio="xMidYMid meet" height="631" width="2000" xmlns="http://www.w3.org/2000/svg" xmlns:xlink="http://www.w3.org/1999/xlink"><g id="tight-bounds" transform="matrix(1,0,0,1,0.2400000000000091,0.07071963386144375)"><svg viewBox="0 0 395.52 124.8585607322771" height="124.8585607322771" width="395.52"><g><svg viewBox="0 0 627.9684045521217 198.23834743558416" height="124.8585607322771" width="395.52"><g transform="matrix(1,0,0,1,0,62.89137301321231)"><svg viewBox="0 0 395.52 72.45560140915954" height="72.45560140915954" width="395.52"><g id="textblocktransform"><svg viewBox="0 0 395.52 72.45560140915954" height="72.45560140915954" width="395.52" id="textblock"><g><svg viewBox="0 0 395.52 72.45560140915954" height="72.45560140915954" width="395.52"><g transform="matrix(1,0,0,1,0,0)"><svg width="395.52" viewBox="3.45 -35.7 198.68 36.400000000000006" height="72.45560140915954" data-palette-color="#000000"><path d="M3.45-1.1L3.45-1.1 3.75-4.1 4.05-4.1Q6-2.4 8.45-1.45 10.9-0.5 13.3-0.5L13.3-0.5Q16.7-0.5 18.8-2.38 20.9-4.25 20.9-7.4L20.9-7.4Q20.9-9.15 20.13-10.65 19.35-12.15 17.57-13.7 15.8-15.25 12.7-17.05L12.7-17.05Q10.55-18.3 8.6-19.68 6.65-21.05 5.4-22.88 4.15-24.7 4.15-27.25L4.15-27.25Q4.15-31.05 6.9-33.38 9.65-35.7 14.15-35.7L14.15-35.7Q16.15-35.7 18.45-35.27 20.75-34.85 22-34.2L22-34.2 21.75-31.4 21.45-31.4Q18.6-34.5 14.15-34.5L14.15-34.5Q10.95-34.5 9-32.88 7.05-31.25 7.05-28.5L7.05-28.5Q7.05-26.45 8.13-24.98 9.2-23.5 10.9-22.33 12.6-21.15 14.55-20.05L14.55-20.05Q16.8-18.75 18.93-17.3 21.05-15.85 22.43-13.83 23.8-11.8 23.8-8.75L23.8-8.75Q23.8-5.95 22.5-3.83 21.2-1.7 18.82-0.5 16.45 0.7 13.3 0.7L13.3 0.7Q11.3 0.7 8.6 0.2 5.9-0.3 3.45-1.1ZM59.75 0L55.25 0 38.85-17.95 54.05-35 58.35-35 41.9-19.35 59.75 0ZM37.05 0L33.65 0 33.65-35 37.05-35 37.05 0ZM70.65 0L67.25 0 67.25-35 70.65-35 70.65 0ZM83.64 0L83.64-35 87.04-35 87.04-1Q87.99-1 90.04-1.3L90.04-1.3 98.34-2.55 98.34 0 83.64 0ZM106.69 0L106.69-35 110.09-35 110.09-1Q111.04-1 113.09-1.3L113.09-1.3 121.39-2.55 121.39 0 106.69 0ZM142.74-14L142.74-35 146.14-35 146.14-13.9Q146.14-7.85 149.11-4.48 152.09-1.1 157.49-1.1L157.49-1.1Q160.89-1.1 163.41-2.43 165.94-3.75 167.31-6.1 168.69-8.45 168.59-11.5L168.59-11.5 167.74-35 171.14-35 170.29-11.5Q170.09-5.5 166.71-2.4 163.34 0.7 157.09 0.7L157.09 0.7Q150.34 0.7 146.54-3.23 142.74-7.15 142.74-14L142.74-14ZM186.53 0L183.13 0 183.13-35 189.38-35Q195.43-35 198.78-32.43 202.13-29.85 202.13-25.25L202.13-25.25Q202.13-20.65 198.78-18.07 195.43-15.5 189.38-15.5L189.38-15.5 186.53-15.5 186.53 0ZM189.38-33.8L189.38-33.8 186.53-33.8 186.53-16.7 189.38-16.7Q198.53-16.7 198.53-25.25L198.53-25.25Q198.53-33.8 189.38-33.8Z" opacity="1" transform="matrix(1,0,0,1,0,0)" fill="#000000" class="wordmark-text-0" data-fill-palette-color="primary" id="text-0"></path></svg></g></svg></g></svg></g></svg></g><g transform="matrix(1,0,0,1,429.73005711653747,0)"><svg viewBox="0 0 198.23834743558416 198.23834743558416" height="198.23834743558416" width="198.23834743558416"><g><svg></svg></g><g id="icon-0"><svg viewBox="0 0 198.23834743558416 198.23834743558416" height="198.23834743558416" width="198.23834743558416"><g></g><g transform="matrix(1,0,0,1,41.162946894734525,53.24502188742687)"><svg viewBox="0 0 115.91245364611511 91.74830366073041" height="91.74830366073041" width="115.91245364611511"><g><svg xmlns="http://www.w3.org/2000/svg" xmlns:xlink="http://www.w3.org/1999/xlink" version="1.1" x="0" y="0" viewBox="20.00067243611007 31.25452448392808 60.0000435715735 47.49189620356451" enable-background="new 0 0 100 100" xml:space="preserve" height="91.74830366073041" width="115.91245364611511" class="icon-dxe-0" data-fill-palette-color="accent" id="dxe-0"></svg></g></svg></g></svg></g></svg></g></svg></g><defs></defs><mask id="e27f60c9-c3f0-4e80-90a3-df73451f0653"><g id="SvgjsG5714"><svg viewBox="0 0 395.52 124.8585607322771" height="124.8585607322771" width="395.52"><g><svg viewBox="0 0 627.9684045521217 198.23834743558416" height="124.8585607322771" width="395.52"><g transform="matrix(1,0,0,1,0,62.89137301321231)"><svg viewBox="0 0 395.52 72.45560140915954" height="72.45560140915954" width="395.52"><g id="SvgjsG5713"><svg viewBox="0 0 395.52 72.45560140915954" height="72.45560140915954" width="395.52" id="SvgjsSvg5712"><g><svg viewBox="0 0 395.52 72.45560140915954" height="72.45560140915954" width="395.52"><g transform="matrix(1,0,0,1,0,0)"><svg width="395.52" viewBox="3.45 -35.7 198.68 36.400000000000006" height="72.45560140915954" data-palette-color="#000000"><path d="M3.45-1.1L3.45-1.1 3.75-4.1 4.05-4.1Q6-2.4 8.45-1.45 10.9-0.5 13.3-0.5L13.3-0.5Q16.7-0.5 18.8-2.38 20.9-4.25 20.9-7.4L20.9-7.4Q20.9-9.15 20.13-10.65 19.35-12.15 17.57-13.7 15.8-15.25 12.7-17.05L12.7-17.05Q10.55-18.3 8.6-19.68 6.65-21.05 5.4-22.88 4.15-24.7 4.15-27.25L4.15-27.25Q4.15-31.05 6.9-33.38 9.65-35.7 14.15-35.7L14.15-35.7Q16.15-35.7 18.45-35.27 20.75-34.85 22-34.2L22-34.2 21.75-31.4 21.45-31.4Q18.6-34.5 14.15-34.5L14.15-34.5Q10.95-34.5 9-32.88 7.05-31.25 7.05-28.5L7.05-28.5Q7.05-26.45 8.13-24.98 9.2-23.5 10.9-22.33 12.6-21.15 14.55-20.05L14.55-20.05Q16.8-18.75 18.93-17.3 21.05-15.85 22.43-13.83 23.8-11.8 23.8-8.75L23.8-8.75Q23.8-5.95 22.5-3.83 21.2-1.7 18.82-0.5 16.45 0.7 13.3 0.7L13.3 0.7Q11.3 0.7 8.6 0.2 5.9-0.3 3.45-1.1ZM59.75 0L55.25 0 38.85-17.95 54.05-35 58.35-35 41.9-19.35 59.75 0ZM37.05 0L33.65 0 33.65-35 37.05-35 37.05 0ZM70.65 0L67.25 0 67.25-35 70.65-35 70.65 0ZM83.64 0L83.64-35 87.04-35 87.04-1Q87.99-1 90.04-1.3L90.04-1.3 98.34-2.55 98.34 0 83.64 0ZM106.69 0L106.69-35 110.09-35 110.09-1Q111.04-1 113.09-1.3L113.09-1.3 121.39-2.55 121.39 0 106.69 0ZM142.74-14L142.74-35 146.14-35 146.14-13.9Q146.14-7.85 149.11-4.48 152.09-1.1 157.49-1.1L157.49-1.1Q160.89-1.1 163.41-2.43 165.94-3.75 167.31-6.1 168.69-8.45 168.59-11.5L168.59-11.5 167.74-35 171.14-35 170.29-11.5Q170.09-5.5 166.71-2.4 163.34 0.7 157.09 0.7L157.09 0.7Q150.34 0.7 146.54-3.23 142.74-7.15 142.74-14L142.74-14ZM186.53 0L183.13 0 183.13-35 189.38-35Q195.43-35 198.78-32.43 202.13-29.85 202.13-25.25L202.13-25.25Q202.13-20.65 198.78-18.07 195.43-15.5 189.38-15.5L189.38-15.5 186.53-15.5 186.53 0ZM189.38-33.8L189.38-33.8 186.53-33.8 186.53-16.7 189.38-16.7Q198.53-16.7 198.53-25.25L198.53-25.25Q198.53-33.8 189.38-33.8Z" opacity="1" transform="matrix(1,0,0,1,0,0)" fill="black" class="wordmark-text-0" id="SvgjsPath5711"></path></svg></g></svg></g></svg></g></svg></g><g transform="matrix(1,0,0,1,429.73005711653747,0)"><svg viewBox="0 0 198.23834743558416 198.23834743558416" height="198.23834743558416" width="198.23834743558416"><g><svg></svg></g><g id="SvgjsG5710"><svg viewBox="0 0 198.23834743558416 198.23834743558416" height="198.23834743558416" width="198.23834743558416"><g><path d="M0 99.119c0-54.742 44.377-99.119 99.119-99.119 54.742 0 99.119 44.377 99.119 99.119 0 54.742-44.377 99.119-99.119 99.119-54.742 0-99.119-44.377-99.119-99.119zM99.119 191.704c51.133 0 92.585-41.452 92.585-92.585 0-51.133-41.452-92.585-92.585-92.585-51.133 0-92.585 41.452-92.585 92.585 0 51.133 41.452 92.585 92.585 92.585z" fill="white" stroke="transparent"></path></g><g transform="matrix(1,0,0,1,41.162946894734525,53.24502188742687)"><svg viewBox="0 0 115.91245364611511 91.74830366073041" height="91.74830366073041" width="115.91245364611511"><g><svg xmlns="http://www.w3.org/2000/svg" xmlns:xlink="http://www.w3.org/1999/xlink" version="1.1" x="0" y="0" viewBox="20.00067243611007 31.25452448392808 60.0000435715735 47.49189620356451" enable-background="new 0 0 100 100" xml:space="preserve" height="91.74830366073041" width="115.91245364611511" class="icon-dxe-0" data-fill-palette-color="accent" id="SvgjsSvg5709"><path d="M79.297 49.314L52.402 31.516A1.57 1.57 0 0 0 51.212 31.288L21.424 37.579A1.57 1.57 0 0 0 20.217 38.775L20.038 39.581A1.57 1.57 0 0 0 20.704 41.23L33.176 49.484 32.455 52.742C32.092 54.39 33.315 56.384 36.18 58.279 41.62 61.879 50.902 63.763 56.928 62.49 59.777 61.889 61.384 60.688 61.712 59.21L62.333 56.397 70.38 54.698C71.381 56.113 72.033 57.829 72.198 60.018A2.53 2.53 0 0 0 70.815 62.268C70.815 63.093 71.214 63.819 71.826 64.284 71.134 67.811 70.212 74.294 72.052 77.167 72.594 78.013 73.361 78.553 74.271 78.726A1.137 1.137 0 1 0 74.698 76.491C74.498 76.454 74.236 76.357 73.969 75.941 73.32 74.927 73.168 72.926 73.288 70.668 73.849 72.42 74.712 73.996 76.041 74.871A1.138 1.138 0 0 0 77.292 72.971C75.504 71.793 74.749 67.755 74.588 64.481A2.53 2.53 0 0 0 75.9 62.27 2.53 2.53 0 0 0 74.477 59.999C74.327 57.667 73.721 55.768 72.785 54.191L78.577 52.967A1.57 1.57 0 0 0 79.784 51.771L79.963 50.965A1.57 1.57 0 0 0 79.297 49.314M48.465 43.157C48.489 42.951 48.698 42.783 49.087 42.701 49.86 42.538 51.058 42.781 51.757 43.245 52.108 43.475 52.267 43.72 52.241 43.926L52.127 44.489H52.126C52.101 44.694 51.892 44.861 51.505 44.943 50.73 45.107 49.535 44.864 48.835 44.401 48.484 44.169 48.325 43.925 48.35 43.72z" fill="white"></path></svg></g></svg></g></svg></g></svg></g></svg></g><defs><mask></mask></defs></svg><rect width="395.52" height="124.8585607322771" fill="black" stroke="none" visibility="hidden"></rect></g></mask><linearGradient x1="0" x2="1" y1="0.5" y2="0.5" id="c7c8cc23-71ae-417a-8b19-19f1687df689"><stop stop-color="#f00b51" offset="0"></stop><stop stop-color="#730062" offset="1"></stop></linearGradient><rect width="395.52" height="124.8585607322771" fill="url(#c7c8cc23-71ae-417a-8b19-19f1687df689)" mask="url(#e27f60c9-c3f0-4e80-90a3-df73451f0653)" data-fill-palette-color="accent"></rect></svg><rect width="395.52" height="124.8585607322771" fill="none" stroke="none" visibility="hidden"></rect></g></svg></g></svg>